<svg width="64" height="80" viewBox="0 0 64 80" fill="none" xmlns="http://www.w3.org/2000/svg">
<path d="M33.1753 79.0239L17.2659 52.8306L49.0847 52.8306L33.1753 79.0239Z" fill="#283655"/>
<g filter="url(#filter0_d_1325_2446)">
<circle cx="31.9059" cy="31.692" r="28.8585" fill="white"/>
<circle cx="31.9059" cy="31.692" r="27.3585" stroke="#283655" stroke-width="3"/>
</g>
<path d="M31.4645 42.2875C28.7925 42.2875 26.6485 41.3035 25.0325 39.3355L27.0965 37.4155C28.3445 38.8875 29.8165 39.6235 31.5125 39.6235C32.3605 39.6235 33.0565 39.3915 33.6005 38.9275C34.1445 38.4475 34.4165 37.8155 34.4165 37.0315C34.4165 36.2155 34.0645 35.5835 33.3605 35.1355C32.6725 34.6715 31.7365 34.4395 30.5525 34.4395H29.1845L28.7045 32.5915L33.2405 27.7675H25.9685V25.1995H37.0805V27.4075L32.4005 32.2075C33.8725 32.4155 35.0645 32.9115 35.9765 33.6955C36.8885 34.4635 37.3445 35.5595 37.3445 36.9835C37.3445 38.5355 36.7925 39.8075 35.6885 40.7995C34.6005 41.7915 33.1925 42.2875 31.4645 42.2875Z" fill="#333333"/>
<defs>
<filter id="filter0_d_1325_2446" x="0.0473633" y="0.833496" width="63.7173" height="63.7173" filterUnits="userSpaceOnUse" color-interpolation-filters="sRGB">
<feFlood flood-opacity="0" result="BackgroundImageFix"/>
<feColorMatrix in="SourceAlpha" type="matrix" values="0 0 0 0 0 0 0 0 0 0 0 0 0 0 0 0 0 0 127 0" result="hardAlpha"/>
<feOffset dy="1"/>
<feGaussianBlur stdDeviation="1.5"/>
<feColorMatrix type="matrix" values="0 0 0 0 0 0 0 0 0 0 0 0 0 0 0 0 0 0 0.25 0"/>
<feBlend mode="normal" in2="BackgroundImageFix" result="effect1_dropShadow_1325_2446"/>
<feBlend mode="normal" in="SourceGraphic" in2="effect1_dropShadow_1325_2446" result="shape"/>
</filter>
</defs>
</svg>
