<svg width="16" height="16" viewBox="0 0 16 16" fill="none" xmlns="http://www.w3.org/2000/svg">
<path d="M13.6344 6.66699C13.6344 11.3337 8.08979 15.3337 8.08979 15.3337C8.08979 15.3337 2.54523 11.3337 2.54523 6.66699C2.54523 5.07569 3.12939 3.54957 4.16919 2.42435C5.209 1.29913 6.61928 0.666992 8.08979 0.666992C9.5603 0.666992 10.9706 1.29913 12.0104 2.42435C13.0502 3.54957 13.6344 5.07569 13.6344 6.66699Z" stroke="#333333" stroke-width="0.5" stroke-linecap="round" stroke-linejoin="round"/>
<path d="M8.08977 8.66699C9.11049 8.66699 9.93796 7.77156 9.93796 6.66699C9.93796 5.56242 9.11049 4.66699 8.08977 4.66699C7.06904 4.66699 6.24158 5.56242 6.24158 6.66699C6.24158 7.77156 7.06904 8.66699 8.08977 8.66699Z" stroke="#333333" stroke-width="0.5" stroke-linecap="round" stroke-linejoin="round"/>
</svg>
