<svg width="14" height="14" viewBox="0 0 14 14" fill="none" xmlns="http://www.w3.org/2000/svg">
<path d="M4.44322 5.082L6.31281 3.724C6.52268 3.57041 6.77796 3.49155 7.03789 3.5C7.35493 3.50791 7.66164 3.6144 7.91537 3.80467C8.1691 3.99494 8.35724 4.25953 8.45364 4.56167C8.56214 4.90175 8.66131 5.13158 8.75114 5.25117C9.02257 5.6133 9.37467 5.90719 9.7795 6.1095C10.1843 6.31181 10.6307 6.41698 11.0833 6.41667V7.58333C10.4809 7.58399 9.88583 7.45108 9.34095 7.19417C8.79607 6.93726 8.31492 6.56275 7.93214 6.09758L7.52556 8.40467L8.72781 9.41383L10.0246 12.9768L8.92789 13.3758L7.73789 10.1068L5.76039 8.44725C5.59811 8.31621 5.47392 8.14405 5.40077 7.94871C5.32762 7.75337 5.30818 7.54199 5.34447 7.33658L5.64139 5.65367L5.24647 5.94067L4.00572 7.64867L3.06189 6.96267L4.43331 5.075L4.44322 5.082ZM7.87497 3.20833C7.56555 3.20833 7.26881 3.08542 7.05002 2.86662C6.83122 2.64783 6.70831 2.35109 6.70831 2.04167C6.70831 1.73225 6.83122 1.4355 7.05002 1.21671C7.26881 0.997916 7.56555 0.875 7.87497 0.875C8.18439 0.875 8.48114 0.997916 8.69993 1.21671C8.91872 1.4355 9.04164 1.73225 9.04164 2.04167C9.04164 2.35109 8.91872 2.64783 8.69993 2.86662C8.48114 3.08542 8.18439 3.20833 7.87497 3.20833ZM6.14131 10.8973L4.26647 13.1314L3.37281 12.3818L5.10881 10.3133L5.54397 9.04167L6.58872 9.91667L6.14131 10.8973Z" fill="#ADADAD"/>
</svg>
