<svg width="21" height="21" viewBox="0 0 21 21" fill="none" xmlns="http://www.w3.org/2000/svg">
<path d="M9.125 11.375V14.375H8.375V6.625H9.125V9.625V10.125H9.625H11.375H11.875V9.625V6.625H12.625V14.375H11.875V11.375V10.875H11.375H9.625H9.125V11.375ZM17.5089 3.49112L17.8624 3.13756L17.5089 3.49112C17.7433 3.72554 17.875 4.04348 17.875 4.375V16.625C17.875 16.9565 17.7433 17.2745 17.5089 17.5089C17.2745 17.7433 16.9565 17.875 16.625 17.875H4.375C4.04348 17.875 3.72554 17.7433 3.49112 17.5089L3.13756 17.8624L3.49112 17.5089C3.2567 17.2745 3.125 16.9565 3.125 16.625V4.375C3.125 4.04348 3.2567 3.72554 3.49112 3.49112C3.72554 3.2567 4.04348 3.125 4.375 3.125H16.625C16.9565 3.125 17.2745 3.2567 17.5089 3.49112ZM4.375 3.875H3.875V4.375V16.625V17.125H4.375H16.625H17.125V16.625V4.375V3.875H16.625H4.375Z" stroke="#333333"/>
</svg>
