<svg width="21" height="21" viewBox="0 0 21 21" fill="none" xmlns="http://www.w3.org/2000/svg">
<path d="M19.6761 0.867425L0.867334 19.6765C0.499834 20.0437 0.62485 20.3439 1.14394 20.3439H1.38577V19.524H1.69519V20.3439H2.30091V19.524H2.61001V20.3439H3.21605V19.524H3.52515V20.3439H4.13087V18.8024H4.44029V20.3439H5.09687V19.524H5.40661V20.3439H6.01233V19.524H6.32143V20.3439H6.92747V19.524H7.2369V20.3439H7.84261V18.8024H8.15138V20.3439H8.80861V19.524H9.11771V20.3439H9.72375V19.524H10.0332V20.3439H10.6386V19.524H10.9483V20.3439H11.5544V18.8024H11.8631V20.3439H12.5204V19.524H12.8295V20.3439H13.4352V19.524H13.7449V20.3439H14.3506V19.524H14.6597V20.3439H15.2658V18.8024H15.5749V20.3439H16.2318V19.524H16.5412V20.3439H17.1469V19.524H17.4563V20.3439H18.0621V19.524H18.3708V20.3439H18.9772V18.8024H19.2866V20.3439H19.3982C19.6486 20.3435 19.8887 20.2439 20.0659 20.0669C20.2431 19.89 20.3431 19.65 20.3438 19.3996V1.14403C20.3438 0.624612 20.043 0.499925 19.6761 0.867425ZM15.9854 15.0408C15.9846 15.291 15.8848 15.5307 15.7079 15.7077C15.531 15.8846 15.2912 15.9843 15.041 15.9851H11.6695C11.1501 15.9851 11.0261 15.6846 11.3926 15.3177L15.317 11.3937C15.6841 11.0268 15.985 11.1512 15.985 11.6706V15.0408H15.9854Z" fill="#333333"/>
</svg>
