<svg width="25" height="25" viewBox="0 0 25 25" fill="none" xmlns="http://www.w3.org/2000/svg">
<path d="M12.5098 6.25C11.7372 6.25 10.9819 6.4791 10.3396 6.90832C9.69719 7.33755 9.19651 7.94762 8.90086 8.66139C8.6052 9.37517 8.52785 10.1606 8.67857 10.9183C8.82929 11.6761 9.20133 12.3721 9.74763 12.9184C10.2939 13.4647 10.99 13.8367 11.7477 13.9874C12.5054 14.1382 13.2908 14.0608 14.0046 13.7652C14.7184 13.4695 15.3285 12.9688 15.7577 12.3264C16.1869 11.6841 16.416 10.9288 16.416 10.1562C16.4134 9.12104 16.0011 8.12897 15.269 7.39696C14.537 6.66496 13.545 6.25258 12.5098 6.25ZM12.5098 12.5C12.0462 12.5 11.5931 12.3625 11.2076 12.105C10.8222 11.8475 10.5218 11.4814 10.3444 11.0532C10.167 10.6249 10.1206 10.1536 10.211 9.69901C10.3015 9.24436 10.5247 8.82675 10.8525 8.49897C11.1803 8.17119 11.5979 7.94797 12.0525 7.85753C12.5072 7.7671 12.9784 7.81351 13.4067 7.99091C13.8349 8.1683 14.201 8.4687 14.4585 8.85413C14.7161 9.23956 14.8535 9.6927 14.8535 10.1562C14.8509 10.7771 14.6032 11.3717 14.1642 11.8107C13.7252 12.2497 13.1306 12.4974 12.5098 12.5ZM12.5098 1.5625C10.2314 1.56508 8.047 2.47133 6.43592 4.08241C4.82484 5.69349 3.9186 7.87784 3.91602 10.1562C3.91602 13.2227 5.33203 16.4746 8.01758 19.5508C9.22476 20.9442 10.5804 22.2016 12.0605 23.3008C12.1936 23.3894 12.3499 23.4366 12.5098 23.4366C12.6696 23.4366 12.8259 23.3894 12.959 23.3008C14.4434 22.2033 15.8025 20.9457 17.0117 19.5508C19.6875 16.4746 21.1035 13.2227 21.1035 10.1562C21.1009 7.87784 20.1947 5.69349 18.5836 4.08241C16.9725 2.47133 14.7882 1.56508 12.5098 1.5625ZM12.5098 21.6797C10.8984 20.4102 5.47851 15.7422 5.47851 10.1562C5.47851 8.29145 6.2193 6.50302 7.53792 5.18441C8.85653 3.86579 10.645 3.125 12.5098 3.125C14.3746 3.125 16.163 3.86579 17.4816 5.18441C18.8002 6.50302 19.541 8.29145 19.541 10.1562C19.541 15.7422 14.1211 20.4102 12.5098 21.6797Z" fill="white"/>
</svg>
