<svg width="21" height="24" viewBox="0 0 21 24" fill="none" xmlns="http://www.w3.org/2000/svg">
<g clip-path="url(#clip0_1365_2613)">
<path d="M7.5 21L10.499 18V19.5C11.9834 19.5002 13.4344 19.06 14.6685 18.2351C15.9025 17.4102 16.8641 16.2377 17.4314 14.866C17.9988 13.4944 18.1464 11.9852 17.8557 10.5296C17.5649 9.07403 16.8488 7.73742 15.798 6.689L17.912 4.565C18.8923 5.53929 19.6699 6.69812 20.2 7.97459C20.73 9.25106 21.0019 10.6199 21 12.002C21 17.8 16.3 22.5 10.502 22.5H10.5V24L7.5 21ZM6.30389e-07 12C0.00700063 6.204 4.704 1.507 10.499 1.5H10.5V0L13.5 3L10.5 6V4.5H10.498C9.01365 4.50008 7.56267 4.94051 6.32872 5.76553C5.09476 6.59056 4.13329 7.76309 3.56597 9.13476C2.99865 10.5064 2.851 12.0156 3.14169 13.4712C3.43238 14.9268 4.14836 16.2634 5.199 17.312L3.087 19.436C2.10722 18.4675 1.32969 17.314 0.799567 16.0424C0.269449 14.7709 -0.00267708 13.4066 -0.00099937 12.029V11.999V12.001L6.30389e-07 12Z" fill="white"/>
</g>
<defs>
<clipPath id="clip0_1365_2613">
<rect width="21" height="24" fill="white"/>
</clipPath>
</defs>
</svg>
